<?xml version="1.0" encoding="UTF-8" standalone="no"?>
<!-- Decoded by svgb2svg converter version 1.1.0 -->

<svg
   version="1.1"
   x="0"
   y="0"
   width="96"
   height="96"
   viewBox="0 0 96 96"
   xml:space="preserve"
   id="svg16"
   sodipodi:docname="WunderList2.svg"
   inkscape:version="1.3.2 (091e20ef0f, 2023-11-25)"
   xmlns:inkscape="http://www.inkscape.org/namespaces/inkscape"
   xmlns:sodipodi="http://sodipodi.sourceforge.net/DTD/sodipodi-0.dtd"
   xmlns="http://www.w3.org/2000/svg"
   xmlns:svg="http://www.w3.org/2000/svg"><sodipodi:namedview
   id="namedview16"
   pagecolor="#505050"
   bordercolor="#ffffff"
   borderopacity="1"
   inkscape:showpageshadow="0"
   inkscape:pageopacity="0"
   inkscape:pagecheckerboard="1"
   inkscape:deskcolor="#505050"
   inkscape:zoom="5.65625"
   inkscape:cx="47.911602"
   inkscape:cy="48"
   inkscape:window-width="1360"
   inkscape:window-height="739"
   inkscape:window-x="0"
   inkscape:window-y="0"
   inkscape:window-maximized="1"
   inkscape:current-layer="svg16" />
  <defs
   id="defs1"><inkscape:perspective
     sodipodi:type="inkscape:persp3d"
     inkscape:vp_x="0 : 0.5 : 1"
     inkscape:vp_y="0 : 1000 : 0"
     inkscape:vp_z="1 : 0.5 : 1"
     inkscape:persp3d-origin="0.5 : 0.33333333 : 1"
     id="perspective46" /><linearGradient
     id="g_eu"
     gradientTransform="scale(0.940091,1.063726)"
     x1="64.188271"
     y1="30.479868"
     x2="77.065834"
     y2="29.470995"
     gradientUnits="userSpaceOnUse"><stop
       style="stop-color:#5b9300;stop-opacity:1;"
       offset="0"
       id="stop2205" /><stop
       style="stop-color:#3a5f00;stop-opacity:1;"
       offset="1"
       id="stop2207" /></linearGradient><linearGradient
     id="g_na"
     gradientTransform="scale(0.895302,1.116942)"
     x1="37.942478"
     y1="25.079979"
     x2="28.321005"
     y2="13.550371"
     gradientUnits="userSpaceOnUse"><stop
       style="stop-color:#65a300;stop-opacity:1;"
       offset="0"
       id="stop2202" /><stop
       style="stop-color:#446e00;stop-opacity:1;"
       offset="1"
       id="stop2204" /></linearGradient><linearGradient
     gradientUnits="userSpaceOnUse"
     y2="67.545273"
     x2="43.61285"
     y1="45.391315"
     x1="39.615849"
     gradientTransform="scale(0.895302,1.116942)"
     id="g_sa"><stop
       id="stop2230"
       offset="0"
       style="stop-color:#65a300;stop-opacity:1;" /><stop
       id="stop2232"
       offset="1"
       style="stop-color:#273f00;stop-opacity:1;" /></linearGradient><linearGradient
     id="g_shadow"
     gradientTransform="matrix(1.014703,0,0,0.98551,41.466703,29.016634)"
     x1="39.492252"
     y1="38.743332"
     x2="69.54895"
     y2="70.685501"
     gradientUnits="userSpaceOnUse"><stop
       style="stop-color:#000000;stop-opacity:0"
       offset="0"
       id="stop2242" /><stop
       style="stop-color:#00182f;stop-opacity:1"
       offset="1"
       id="stop2244" /></linearGradient><radialGradient
     id="g_highlight"
     cx="31.222561"
     cy="38.082684"
     fx="31.222561"
     fy="38.082684"
     r="27.626842"
     gradientTransform="matrix(0.819287,-0.806802,0.593525,0.60271,-8.2078581,45.687194)"
     gradientUnits="userSpaceOnUse"
     spreadMethod="pad"><stop
       style="stop-color:#ffffff;stop-opacity:1;"
       offset="0"
       id="stop2292" /><stop
       style="stop-color:#ffffff;stop-opacity:0;"
       offset="1"
       id="stop2294" /></radialGradient><radialGradient
     id="g_circle"
     cx="18.94784"
     cy="41.670666"
     fx="18.94784"
     fy="41.670666"
     r="43.45013"
     gradientTransform="matrix(1,0,0,0.969568,0,1.268115)"
     gradientUnits="userSpaceOnUse"
     spreadMethod="pad"><stop
       style="stop-color:#fceeb4;stop-opacity:1;"
       offset="0"
       id="stop5705" /><stop
       style="stop-color:#924d06;stop-opacity:1;"
       offset="1"
       id="stop5707" /></radialGradient></defs>
  <rect
   id="BOUNDING_BOX_3_"
   fill="none"
   width="96"
   height="96" />
  <path
   id="SHADOW_1_"
   fill-opacity="0.4"
   d="M88.023,49C88.023,78.633,77.659,89,48.023,89C18.388,89,8.023,78.633,8.023,49C8.023,19.366,18.389,9,48.023,9C77.659,9,88.023,19.365,88.023,49z" />
  <linearGradient
   id="BLUE_4_4_"
   gradientUnits="userSpaceOnUse"
   x1="47.9995"
   y1="8.0107"
   x2="47.9995"
   y2="87.9897">
    <stop
   offset="0.0364"
   stop-color="#4791D9"
   id="stop1" />
    <stop
   offset="0.2496"
   stop-color="#4288CF"
   id="stop2" />
    <stop
   offset="0.6102"
   stop-color="#366EB5"
   id="stop3" />
    <stop
   offset="1"
   stop-color="#264C91"
   id="stop4" />
  </linearGradient>
  <path
   id="BLUE_4_3_"
   fill="url(#BLUE_4_4_)"
   d="M8,47.989C8,77.622,18.365,87.989,48,87.989C77.637,87.989,88,77.622,88,47.989C88,19.004,78.074,8.459,49.909,8.01L46.092,8.01C17.928,8.459,8,19.004,8,47.989z" />
  <linearGradient
   id="HIGHLIGHT_BLU4_2_"
   gradientUnits="userSpaceOnUse"
   x1="47.9995"
   y1="8.2559"
   x2="47.9995"
   y2="87.5043">
    <stop
   offset="0.0364"
   stop-color="#FFFFFF"
   id="stop5" />
    <stop
   offset="0.129"
   stop-color="#F5F7FA"
   id="stop6" />
    <stop
   offset="0.2858"
   stop-color="#DBE1ED"
   id="stop7" />
    <stop
   offset="0.4876"
   stop-color="#AFBDD7"
   id="stop8" />
    <stop
   offset="0.7265"
   stop-color="#738CB8"
   id="stop9" />
    <stop
   offset="0.9942"
   stop-color="#284D92"
   id="stop10" />
    <stop
   offset="1"
   stop-color="#264C91"
   id="stop11" />
  </linearGradient>
  <path
   id="HIGHLIGHT_BLU4_1_"
   fill-opacity="0.25"
   fill="url(#HIGHLIGHT_BLU4_2_)"
   d="M48,8C18.365,8,8,18.365,8,48C8,77.633,18.365,88,48,88C77.637,88,88,77.633,88,48C88,18.365,77.637,8,48,8zM48,87.023C18.842,87.023,9,77.176,9,48C9,18.824,18.842,8.977,48,8.977C77.158,8.977,87,18.824,87,48C87,77.176,77.158,87.023,48,87.023z" />
  <rect
   id="BOUNDING_BOX_2_"
   x="13.5"
   y="18.5"
   fill="none"
   width="67"
   height="57" />
  <path
   fill-opacity="0.3"
   d="M66.295,27.75L54.205,27.75C52.295,27.75,50.745,29.31,50.745,31.2L50.745,43.3C50.745,45.19,52.295,46.75,54.205,46.75L66.295,46.75C68.195,46.75,69.745,45.19,69.745,43.3L69.745,31.2C69.745,29.31,68.195,27.75,66.295,27.75zM66.745,43.75L53.745,43.75L53.745,30.75L66.745,30.75L66.745,43.75zM42.295,51.75L30.205,51.75C28.295,51.75,26.745,53.311,26.745,55.199L26.745,67.299C26.745,69.19,28.295,70.75,30.205,70.75L42.295,70.75C44.195,70.75,45.745,69.189,45.745,67.299L45.745,55.199C45.745,53.311,44.195,51.75,42.295,51.75zM42.745,67.75L29.745,67.75L29.745,54.75L42.745,54.75L42.745,67.75zM28.565,29.178L28.176,29.555C22.281,35.467,23.582,39.343,28.352,44.124C33.144,48.926,37.059,50.206,42.926,44.33L43.316,43.955C49.222,38.036,47.899,34.148,43.136,29.371C38.348,24.579,34.441,23.29,28.565,29.178zM66.295,51.75L54.205,51.75C52.295,51.75,50.745,53.311,50.745,55.199L50.745,67.299C50.745,69.19,52.295,70.75,54.205,70.75L66.295,70.75C68.195,70.75,69.745,69.189,69.745,67.299L69.745,55.199C69.745,53.311,68.195,51.75,66.295,51.75zM66.745,67.75L53.745,67.75L53.745,54.75L66.745,54.75L66.745,67.75z"
   id="path11" />
  <path
   fill-opacity="0.15"
   d="M54.205,70.75C51.746,70.75,49.745,68.754,49.745,66.299L49.745,54.199C49.745,51.746,51.746,49.75,54.205,49.75L66.295,49.75C68.749,49.75,70.745,51.746,70.745,54.199L70.745,66.299C70.745,68.754,68.749,70.75,66.295,70.75L54.205,70.75zM65.745,65.75L65.745,54.75L54.745,54.75L54.745,65.75L65.745,65.75zM30.205,70.75C27.745,70.75,25.745,68.754,25.745,66.299L25.745,54.199C25.745,51.746,27.745,49.75,30.205,49.75L42.295,49.75C44.749,49.75,46.745,51.746,46.745,54.199L46.745,66.299C46.745,68.754,44.748,70.75,42.295,70.75L30.205,70.75zM41.745,65.75L41.745,54.75L30.745,54.75L30.745,65.75L41.745,65.75zM35.714,48.25C32.47,48.25,29.697,45.888,27.644,43.83C22.807,38.982,20.926,34.41,27.468,27.849L27.869,27.46C30.731,24.592,33.249,23.251,35.781,23.251C38.341,23.251,40.752,24.571,43.843,27.664C48.684,32.522,50.569,37.101,44.023,43.662L43.619,44.05C40.763,46.911,38.246,48.25,35.714,48.25L35.714,48.25zM54.205,46.75C51.746,46.75,49.745,44.753,49.745,42.3L49.745,30.2C49.745,27.747,51.746,25.75,54.205,25.75L66.295,25.75C68.749,25.75,70.745,27.747,70.745,30.2L70.745,42.3C70.745,44.754,68.749,46.75,66.295,46.75L54.205,46.75zM65.745,41.75L65.745,30.75L54.745,30.75L54.745,41.75L65.745,41.75z"
   id="path12" />
  <path
   fill-opacity="0.15"
   d="M66.295,26.75L54.205,26.75C52.295,26.75,50.745,28.31,50.745,30.2L50.745,42.3C50.745,44.19,52.295,45.75,54.205,45.75L66.295,45.75C68.195,45.75,69.745,44.19,69.745,42.3L69.745,30.2C69.745,28.31,68.195,26.75,66.295,26.75zM66.745,42.75L53.745,42.75L53.745,29.75L66.745,29.75L66.745,42.75zM42.295,50.75L30.205,50.75C28.295,50.75,26.745,52.311,26.745,54.199L26.745,66.299C26.745,68.19,28.295,69.75,30.205,69.75L42.295,69.75C44.195,69.75,45.745,68.189,45.745,66.299L45.745,54.199C45.745,52.311,44.195,50.75,42.295,50.75zM42.745,66.75L29.745,66.75L29.745,53.75L42.745,53.75L42.745,66.75zM28.565,28.178L28.176,28.555C22.281,34.467,23.582,38.343,28.352,43.124C33.144,47.927,37.059,49.206,42.926,43.33L43.316,42.955C49.222,37.036,47.899,33.148,43.136,28.371C38.348,23.579,34.441,22.29,28.565,28.178zM66.295,50.75L54.205,50.75C52.295,50.75,50.745,52.311,50.745,54.199L50.745,66.299C50.745,68.19,52.295,69.75,54.205,69.75L66.295,69.75C68.195,69.75,69.745,68.189,69.745,66.299L69.745,54.199C69.745,52.311,68.195,50.75,66.295,50.75zM66.745,66.75L53.745,66.75L53.745,53.75L66.745,53.75L66.745,66.75z"
   id="path13" />
  <linearGradient
   id="SVGID_1_"
   gradientUnits="userSpaceOnUse"
   x1="242.9961"
   y1="-157.7495"
   x2="242.9961"
   y2="-112.25"
   gradientTransform="matrix(1 0 0 -1 -196 -88)">
    <stop
   offset="0"
   stop-color="#D0CBC5"
   id="stop13" />
    <stop
   offset="0.5031"
   stop-color="#FAFCEF"
   id="stop14" />
    <stop
   offset="0.9693"
   stop-color="#FFFFFF"
   id="stop15" />
  </linearGradient>
  <path
   fill="url(#SVGID_1_)"
   d="M66.295,26.75L54.205,26.75C52.295,26.75,50.745,28.31,50.745,30.2L50.745,42.3C50.745,44.19,52.295,45.75,54.205,45.75L66.295,45.75C68.195,45.75,69.745,44.19,69.745,42.3L69.745,30.2C69.745,28.31,68.195,26.75,66.295,26.75zM66.745,42.75L53.745,42.75L53.745,29.75L66.745,29.75L66.745,42.75zM42.295,50.75L30.205,50.75C28.295,50.75,26.745,52.311,26.745,54.199L26.745,66.299C26.745,68.19,28.295,69.75,30.205,69.75L42.295,69.75C44.195,69.75,45.745,68.189,45.745,66.299L45.745,54.199C45.745,52.311,44.195,50.75,42.295,50.75zM42.745,66.75L29.745,66.75L29.745,53.75L42.745,53.75L42.745,66.75zM28.565,28.178L28.176,28.555C22.281,34.467,23.582,38.343,28.352,43.124C33.144,47.927,37.059,49.206,42.926,43.33L43.316,42.955C49.222,37.036,47.899,33.148,43.136,28.371C38.348,23.579,34.441,22.29,28.565,28.178zM66.295,50.75L54.205,50.75C52.295,50.75,50.745,52.311,50.745,54.199L50.745,66.299C50.745,68.19,52.295,69.75,54.205,69.75L66.295,69.75C68.195,69.75,69.745,68.189,69.745,66.299L69.745,54.199C69.745,52.311,68.195,50.75,66.295,50.75zM66.745,66.75L53.745,66.75L53.745,53.75L66.745,53.75L66.745,66.75z"
   id="path15" />
  <path
   fill="#FFFFFF"
   d="M29.745,67.75L29.745,66.75L42.745,66.75L42.745,67.75L29.745,67.75zM42.295,50.75L30.205,50.75C28.295,50.75,26.745,52.311,26.745,54.199L26.745,55.199C26.745,53.31,28.295,51.75,30.205,51.75L42.295,51.75C44.195,51.75,45.745,53.311,45.745,55.199L45.745,54.199C45.745,52.311,44.195,50.75,42.295,50.75zM66.745,43.75L66.745,42.75L53.745,42.75L53.745,43.75L66.745,43.75zM66.745,67.75L66.745,66.75L53.745,66.75L53.745,67.75L66.745,67.75zM28.565,28.178L28.176,28.555C25.211,31.529,24.069,33.987,24.271,36.305C24.435,34.276,25.633,32.105,28.176,29.555L28.565,29.178C34.441,23.29,38.348,24.579,43.136,29.37C45.505,31.746,47.02,33.902,47.221,36.198C47.436,33.519,45.846,31.088,43.136,28.37C38.348,23.579,34.441,22.29,28.565,28.178zM66.295,26.75L54.205,26.75C52.295,26.75,50.745,28.31,50.745,30.2L50.745,31.2C50.745,29.31,52.295,27.75,54.205,27.75L66.295,27.75C68.195,27.75,69.745,29.31,69.745,31.2L69.745,30.2C69.745,28.31,68.195,26.75,66.295,26.75zM66.295,50.75L54.205,50.75C52.295,50.75,50.745,52.311,50.745,54.199L50.745,55.199C50.745,53.31,52.295,51.75,54.205,51.75L66.295,51.75C68.195,51.75,69.745,53.311,69.745,55.199L69.745,54.199C69.745,52.311,68.195,50.75,66.295,50.75z"
   id="path16" />
<g
   id="g6"
   transform="matrix(0.835698,0,0,0.835698,11.455679,13.031727)"><g
     id="g1"
     transform="matrix(1.1966045,0,0,1.1966045,-13.813694,-15.593823)"><rect
       id="BOUNDING_BOX_3_-2"
       fill="none"
       width="96"
       height="96"
       x="0"
       y="0" /><path
       id="SHADOW_1_-7"
       fill-opacity="0.4"
       d="m 88.023,49 c 0,29.633 -10.364,40 -40,40 -29.635,0 -40,-10.367 -40,-40 0,-29.634 10.366,-40 40,-40 29.636,0 40,10.365 40,40 z" /><path
       id="BLUE_4_3_-0"
       fill="url(#BLUE_4_4_)"
       d="m 8,47.989 c 0,29.633 10.365,40 40,40 29.637,0 40,-10.367 40,-40 C 88,19.004 78.074,8.459 49.909,8.01 H 46.092 C 17.928,8.459 8,19.004 8,47.989 Z" /><path
       id="HIGHLIGHT_BLU4_1_-9"
       fill-opacity="0.25"
       fill="url(#HIGHLIGHT_BLU4_2_)"
       d="M 48,8 C 18.365,8 8,18.365 8,48 8,77.633 18.365,88 48,88 77.637,88 88,77.633 88,48 88,18.365 77.637,8 48,8 Z m 0,79.023 C 18.842,87.023 9,77.176 9,48 9,18.824 18.842,8.977 48,8.977 77.158,8.977 87,18.824 87,48 87,77.176 77.158,87.023 48,87.023 Z" /><rect
       id="BOUNDING_BOX_2_-3"
       x="13.5"
       y="18.5"
       fill="none"
       width="67"
       height="57" /><path
       fill-opacity="0.3"
       d="m 66.295,27.75 h -12.09 c -1.91,0 -3.46,1.56 -3.46,3.45 v 12.1 c 0,1.89 1.55,3.45 3.46,3.45 h 12.09 c 1.9,0 3.45,-1.56 3.45,-3.45 V 31.2 c 0,-1.89 -1.55,-3.45 -3.45,-3.45 z m 0.45,16 h -13 v -13 h 13 z m -24.45,8 h -12.09 c -1.91,0 -3.46,1.561 -3.46,3.449 v 12.1 c 0,1.891 1.55,3.451 3.46,3.451 h 12.09 c 1.9,0 3.45,-1.561 3.45,-3.451 v -12.1 c 0,-1.888 -1.55,-3.449 -3.45,-3.449 z m 0.45,16 h -13 v -13 h 13 z m -14.18,-38.572 -0.389,0.377 c -5.895,5.912 -4.594,9.788 0.176,14.569 4.792,4.802 8.707,6.082 14.574,0.206 l 0.39,-0.375 c 5.906,-5.919 4.583,-9.807 -0.18,-14.584 -4.788,-4.792 -8.695,-6.081 -14.571,-0.193 z m 37.73,22.572 h -12.09 c -1.91,0 -3.46,1.561 -3.46,3.449 v 12.1 c 0,1.891 1.55,3.451 3.46,3.451 h 12.09 c 1.9,0 3.45,-1.561 3.45,-3.451 v -12.1 c 0,-1.888 -1.55,-3.449 -3.45,-3.449 z m 0.45,16 h -13 v -13 h 13 z"
       id="path11-6" /><path
       fill-opacity="0.15"
       d="m 54.205,70.75 c -2.459,0 -4.46,-1.996 -4.46,-4.451 v -12.1 c 0,-2.453 2.001,-4.449 4.46,-4.449 h 12.09 c 2.454,0 4.45,1.996 4.45,4.449 v 12.1 c 0,2.455 -1.996,4.451 -4.45,4.451 z m 11.54,-5 v -11 h -11 v 11 z m -35.54,5 c -2.46,0 -4.46,-1.996 -4.46,-4.451 v -12.1 c 0,-2.453 2,-4.449 4.46,-4.449 h 12.09 c 2.454,0 4.45,1.996 4.45,4.449 v 12.1 c 0,2.455 -1.997,4.451 -4.45,4.451 z m 11.54,-5 v -11 h -11 v 11 z m -6.031,-17.5 c -3.244,0 -6.017,-2.362 -8.07,-4.42 -4.837,-4.848 -6.718,-9.42 -0.176,-15.981 l 0.401,-0.389 c 2.862,-2.868 5.38,-4.209 7.912,-4.209 2.56,0 4.971,1.32 8.062,4.413 4.841,4.858 6.726,9.437 0.18,15.998 l -0.404,0.388 c -2.856,2.861 -5.373,4.2 -7.905,4.2 z m 18.491,-1.5 c -2.459,0 -4.46,-1.997 -4.46,-4.45 V 30.2 c 0,-2.453 2.001,-4.45 4.46,-4.45 h 12.09 c 2.454,0 4.45,1.997 4.45,4.45 v 12.1 c 0,2.454 -1.996,4.45 -4.45,4.45 z m 11.54,-5 v -11 h -11 v 11 z"
       id="path12-0" /><path
       fill-opacity="0.15"
       d="m 66.295,26.75 h -12.09 c -1.91,0 -3.46,1.56 -3.46,3.45 v 12.1 c 0,1.89 1.55,3.45 3.46,3.45 h 12.09 c 1.9,0 3.45,-1.56 3.45,-3.45 V 30.2 c 0,-1.89 -1.55,-3.45 -3.45,-3.45 z m 0.45,16 h -13 v -13 h 13 z m -24.45,8 h -12.09 c -1.91,0 -3.46,1.561 -3.46,3.449 v 12.1 c 0,1.891 1.55,3.451 3.46,3.451 h 12.09 c 1.9,0 3.45,-1.561 3.45,-3.451 v -12.1 c 0,-1.888 -1.55,-3.449 -3.45,-3.449 z m 0.45,16 h -13 v -13 h 13 z m -14.18,-38.572 -0.389,0.377 c -5.895,5.912 -4.594,9.788 0.176,14.569 4.792,4.803 8.707,6.082 14.574,0.206 l 0.39,-0.375 c 5.906,-5.919 4.583,-9.807 -0.18,-14.584 -4.788,-4.792 -8.695,-6.081 -14.571,-0.193 z m 37.73,22.572 h -12.09 c -1.91,0 -3.46,1.561 -3.46,3.449 v 12.1 c 0,1.891 1.55,3.451 3.46,3.451 h 12.09 c 1.9,0 3.45,-1.561 3.45,-3.451 v -12.1 c 0,-1.888 -1.55,-3.449 -3.45,-3.449 z m 0.45,16 h -13 v -13 h 13 z"
       id="path13-6" /><path
       fill="url(#SVGID_1_)"
       d="m 66.295,26.75 h -12.09 c -1.91,0 -3.46,1.56 -3.46,3.45 v 12.1 c 0,1.89 1.55,3.45 3.46,3.45 h 12.09 c 1.9,0 3.45,-1.56 3.45,-3.45 V 30.2 c 0,-1.89 -1.55,-3.45 -3.45,-3.45 z m 0.45,16 h -13 v -13 h 13 z m -24.45,8 h -12.09 c -1.91,0 -3.46,1.561 -3.46,3.449 v 12.1 c 0,1.891 1.55,3.451 3.46,3.451 h 12.09 c 1.9,0 3.45,-1.561 3.45,-3.451 v -12.1 c 0,-1.888 -1.55,-3.449 -3.45,-3.449 z m 0.45,16 h -13 v -13 h 13 z m -14.18,-38.572 -0.389,0.377 c -5.895,5.912 -4.594,9.788 0.176,14.569 4.792,4.803 8.707,6.082 14.574,0.206 l 0.39,-0.375 c 5.906,-5.919 4.583,-9.807 -0.18,-14.584 -4.788,-4.792 -8.695,-6.081 -14.571,-0.193 z m 37.73,22.572 h -12.09 c -1.91,0 -3.46,1.561 -3.46,3.449 v 12.1 c 0,1.891 1.55,3.451 3.46,3.451 h 12.09 c 1.9,0 3.45,-1.561 3.45,-3.451 v -12.1 c 0,-1.888 -1.55,-3.449 -3.45,-3.449 z m 0.45,16 h -13 v -13 h 13 z"
       id="path15-2" /><path
       fill="#ffffff"
       d="m 29.745,67.75 v -1 h 13 v 1 z m 12.55,-17 h -12.09 c -1.91,0 -3.46,1.561 -3.46,3.449 v 1 c 0,-1.889 1.55,-3.449 3.46,-3.449 h 12.09 c 1.9,0 3.45,1.561 3.45,3.449 v -1 c 0,-1.888 -1.55,-3.449 -3.45,-3.449 z m 24.45,-7 v -1 h -13 v 1 z m 0,24 v -1 h -13 v 1 z m -38.18,-39.572 -0.389,0.377 c -2.965,2.974 -4.107,5.432 -3.905,7.75 0.164,-2.029 1.362,-4.2 3.905,-6.75 l 0.389,-0.377 c 5.876,-5.888 9.783,-4.599 14.571,0.192 2.369,2.376 3.884,4.532 4.085,6.828 0.215,-2.679 -1.375,-5.11 -4.085,-7.828 -4.788,-4.791 -8.695,-6.08 -14.571,-0.192 z m 37.73,-1.428 h -12.09 c -1.91,0 -3.46,1.56 -3.46,3.45 v 1 c 0,-1.89 1.55,-3.45 3.46,-3.45 h 12.09 c 1.9,0 3.45,1.56 3.45,3.45 v -1 c 0,-1.89 -1.55,-3.45 -3.45,-3.45 z m 0,24 h -12.09 c -1.91,0 -3.46,1.561 -3.46,3.449 v 1 c 0,-1.889 1.55,-3.449 3.46,-3.449 h 12.09 c 1.9,0 3.45,1.561 3.45,3.449 v -1 c 0,-1.888 -1.55,-3.449 -3.45,-3.449 z"
       id="path16-6" /></g><path
     style="fill:#ffd339;fill-opacity:1;stroke-width:1.1966"
     d="m 19.3912,76.906942 0.678097,3.789132 2.186437,0.121783 -3.105119,1.767725 -0.611437,3.224246 -1.141995,-4.41363 -3.295867,-0.745329 3.02633,-0.890717 z"
     id="path2223" /><path
     style="fill:#ffd339;fill-opacity:1;stroke-width:1.1966"
     d="M 3.4285869,54.665211 3.5496316,56.507019 5.122079,58.129705 3.2596177,58.181159 2.2852926,59.668647 1.6168332,57.25865 -0.00928762,56.172044 2.4542618,56.152697 Z"
     id="path1338" /><path
     transform="matrix(1.196605,0,0,1.196605,-8.766039,-8.392604)"
     style="fill:#ffd339;fill-opacity:1"
     d="m 22.09254,39.025718 -2.356535,-3.053606 -4.503333,0.634713 3.631544,-2.641834 -0.161158,-4.781421 2.04721,3.965132 3.085169,-0.946443 -2.055528,3.251246 z"
     id="path2213" /><path
     transform="matrix(1.196605,0,0,1.196605,-8.766039,-8.392604)"
     style="fill:#ffd339;fill-opacity:1"
     d="m 54.049642,24.926512 -4.8218,-1.808847 -4.314061,1.228866 3.206181,-4.041908 -1.07814,-3.721998 3.363045,2.711645 4.748716,-0.793554 -4.132305,3.272835 z"
     id="path2215" /><path
     style="fill:#ffd339;fill-opacity:1"
     d="M 70.333782,11.122813 68.718334,8.1973729 64.73552,7.997537 l 2.936114,-1.7421335 0.766272,-4.6924319 1.943816,4.3681955 2.69279,0.00854 -2.625252,1.4117246 z"
     id="path2217" /><path
     style="fill:#ffd339;fill-opacity:1;stroke-width:1.1966"
     d="m 80.898016,17.213649 2.325337,2.776089 3.141816,-0.41476 -2.462616,1.77581 0.907198,2.254043 -2.261628,-1.873532 -3.769876,0.541123 2.950397,-2.03996 z"
     id="path2221" /><path
     style="fill:#ffd339;fill-opacity:1"
     d="m 20.675009,50.679239 -0.250018,-3.812635 -2.847686,-0.687588 3.127485,-1.061444 0.762786,-2.846262 0.823737,2.089583 3.695766,1.737518 -3.560564,0.749521 z"
     id="path2225"
     transform="matrix(1.196605,0,0,1.196605,-12.3404,3.247574)" /><path
     style="opacity:1;fill:url(#g_highlight);fill-opacity:1"
     d="m 65.200691,69.634684 c -7.525754,7.961652 -33.157318,25.163426 -45.015645,8 C 8.1363569,60.195733 9.6094049,41.933714 20.843473,28.179586 31.933027,14.602392 52.363905,6.6366841 69.225661,17.839013 c 16.73787,11.120023 9.011229,38.004408 -4.02497,51.795671 z"
     id="highlight"
     sodipodi:nodetypes="czzzs" /></g></svg>
